M48
;Layer_Color=9474304
;FILE_FORMAT=2:5
INCH,TZ
;TYPE=PLATED
T1F00S00C0.01575
T2F00S00C0.02756
T3F00S00C0.03937
T4F00S00C0.13780
%
T01
X132382Y66831
Y69521
Y72211
Y74902
X135335
Y72211
Y69521
Y66831
X140945Y97244
X144095
Y100394
Y103543
Y106693
Y109843
Y112992
Y116142
Y119291
X140945
Y116142
Y112992
Y109843
Y106693
Y103543
Y100394
T02
X32579Y52461
X46358
X60138
X73917
X171260Y47204
X196850Y53150
X210630
X224410
X238189
Y64961
X224410
X210630
Y177165
Y188976
X224410
Y177165
X238189
Y188976
X196850
Y177165
X178740Y99606
X178150Y76968
X196850Y64961
X149606Y63779
X124606Y58071
X109055Y74410
X73917Y64272
X60138
X62205Y176181
Y187992
X75984
Y176181
X48425
Y187992
X34646
Y176181
X32579Y64272
X46358
T03
X218504Y153150
X243701Y152756
X26575Y113189
X27165Y88583
T04
X238189Y23622
X135827Y210630
M30
