G04*
G04 #@! TF.GenerationSoftware,Altium Limited,Altium Designer,19.0.14 (431)*
G04*
G04 Layer_Color=16711935*
%FSLAX25Y25*%
%MOIN*%
G70*
G01*
G75*
%ADD35C,0.07874*%
%ADD36C,0.06299*%
%ADD37C,0.05512*%
%ADD38C,0.03937*%
%ADD39C,0.24803*%
G36*
X150098Y86516D02*
X143996Y80413D01*
X143996Y64665D01*
X128248Y64665D01*
Y65319D01*
X128248Y65319D01*
X128248Y127165D01*
X150098Y127165D01*
X150098Y86516D01*
D02*
G37*
D35*
X26575Y113189D02*
D03*
X218504Y153150D02*
D03*
X27165Y88583D02*
D03*
X243701Y152756D02*
D03*
D36*
X178150Y76968D02*
D03*
X171260Y47204D02*
D03*
X124606Y58071D02*
D03*
X46358Y64272D02*
D03*
Y52461D02*
D03*
X32579D02*
D03*
Y64272D02*
D03*
X73917D02*
D03*
Y52461D02*
D03*
X60138D02*
D03*
Y64272D02*
D03*
X210630Y64961D02*
D03*
Y53150D02*
D03*
X196850D02*
D03*
Y64961D02*
D03*
X238189D02*
D03*
Y53150D02*
D03*
X224410D02*
D03*
Y64961D02*
D03*
X210630Y188976D02*
D03*
Y177165D02*
D03*
X196850D02*
D03*
Y188976D02*
D03*
X238189D02*
D03*
Y177165D02*
D03*
X224410D02*
D03*
Y188976D02*
D03*
X62205Y187992D02*
D03*
Y176181D02*
D03*
X75984D02*
D03*
Y187992D02*
D03*
X48425D02*
D03*
Y176181D02*
D03*
X34646D02*
D03*
Y187992D02*
D03*
X109055Y74410D02*
D03*
X178740Y99606D02*
D03*
D37*
X149606Y63779D02*
D03*
D38*
X132382Y69521D02*
D03*
Y66831D02*
D03*
X135335Y69521D02*
D03*
X132382Y72211D02*
D03*
X135335Y66831D02*
D03*
Y74902D02*
D03*
X132382D02*
D03*
X135335Y72211D02*
D03*
X144095Y100394D02*
D03*
Y97244D02*
D03*
Y103543D02*
D03*
Y106693D02*
D03*
Y109843D02*
D03*
Y112992D02*
D03*
Y116142D02*
D03*
Y119291D02*
D03*
X140945Y97244D02*
D03*
Y100394D02*
D03*
Y103543D02*
D03*
Y106693D02*
D03*
Y109843D02*
D03*
Y112992D02*
D03*
Y116142D02*
D03*
Y119291D02*
D03*
D39*
X135827Y210630D02*
D03*
X238189Y23622D02*
D03*
M02*
