G04*
G04 #@! TF.GenerationSoftware,Altium Limited,Altium Designer,19.0.14 (431)*
G04*
G04 Layer_Color=8421504*
%FSLAX25Y25*%
%MOIN*%
G70*
G01*
G75*
%ADD15R,0.10236X0.12598*%
%ADD16R,0.06500X0.11201*%
%ADD17R,0.03500X0.01201*%
%ADD18R,0.06299X0.11024*%
%ADD19R,0.15158X0.07480*%
%ADD20R,0.03937X0.03543*%
%ADD21R,0.03543X0.03937*%
%ADD22R,0.07480X0.15158*%
%ADD23R,0.06122X0.06181*%
%ADD24R,0.06102X0.21260*%
D15*
X158880Y148031D02*
D03*
X125415D02*
D03*
D16*
X133858Y70866D02*
D03*
D17*
X142148Y77756D02*
D03*
Y73819D02*
D03*
Y69882D02*
D03*
Y67913D02*
D03*
Y65945D02*
D03*
Y63976D02*
D03*
X125530D02*
D03*
Y65945D02*
D03*
Y67913D02*
D03*
Y69882D02*
D03*
Y73819D02*
D03*
Y77756D02*
D03*
D18*
X160470Y115748D02*
D03*
X148856D02*
D03*
X160470Y100000D02*
D03*
X148856D02*
D03*
D19*
X215945Y112598D02*
D03*
X243898D02*
D03*
D20*
X117126Y60827D02*
D03*
Y67126D02*
D03*
X109252D02*
D03*
Y60827D02*
D03*
X157811Y76968D02*
D03*
Y70669D02*
D03*
X164370Y57046D02*
D03*
Y50747D02*
D03*
X146653Y57046D02*
D03*
Y50747D02*
D03*
D21*
X165261Y77374D02*
D03*
X171561D02*
D03*
X171361Y70574D02*
D03*
X165061D02*
D03*
X182283Y55118D02*
D03*
X175984D02*
D03*
X152362Y56849D02*
D03*
X158661D02*
D03*
X175984Y62992D02*
D03*
X182283D02*
D03*
D22*
X82677Y104527D02*
D03*
Y76575D02*
D03*
D23*
X38721Y113189D02*
D03*
X53799D02*
D03*
X138642Y87402D02*
D03*
X123563D02*
D03*
D24*
X135864Y110236D02*
D03*
X115195D02*
D03*
M02*
