G04*
G04 #@! TF.GenerationSoftware,Altium Limited,Altium Designer,19.0.14 (431)*
G04*
G04 Layer_Color=32896*
%FSLAX25Y25*%
%MOIN*%
G70*
G01*
G75*
%ADD12C,0.01575*%
D12*
X49606Y214173D02*
Y222045D01*
X45671D01*
X44359Y220733D01*
Y218109D01*
X45671Y216797D01*
X49606D01*
X46982D02*
X44359Y214173D01*
X36487Y222045D02*
X41735D01*
Y214173D01*
X36487D01*
X41735Y218109D02*
X39111D01*
X33863Y222045D02*
Y216797D01*
X31240Y214173D01*
X28616Y216797D01*
Y222045D01*
X25992Y220733D02*
X24680Y222045D01*
X22056D01*
X20744Y220733D01*
Y215485D01*
X22056Y214173D01*
X24680D01*
X25992Y215485D01*
Y220733D01*
X18120Y214173D02*
X15497D01*
X16808D01*
Y222045D01*
X18120Y220733D01*
X249083Y223455D02*
X250395Y224767D01*
X253019D01*
X254331Y223455D01*
Y222143D01*
X253019Y220831D01*
X250395D01*
X249083Y219519D01*
Y218207D01*
X250395Y216896D01*
X253019D01*
X254331Y218207D01*
X245147Y223455D02*
Y222143D01*
X246459D01*
X243835D01*
X245147D01*
Y218207D01*
X243835Y216896D01*
X235964D02*
X238588D01*
X239900Y218207D01*
Y220831D01*
X238588Y222143D01*
X235964D01*
X234652Y220831D01*
Y219519D01*
X239900D01*
X232028Y214272D02*
Y222143D01*
X228093D01*
X226781Y220831D01*
Y218207D01*
X228093Y216896D01*
X232028D01*
X222845Y222143D02*
X220221D01*
X218909Y220831D01*
Y216896D01*
X222845D01*
X224157Y218207D01*
X222845Y219519D01*
X218909D01*
X216285Y216896D02*
Y222143D01*
X212350D01*
X211038Y220831D01*
Y216896D01*
X208414D02*
X205790D01*
X207102D01*
Y222143D01*
X208414D01*
X200542D02*
X197918D01*
X196607Y220831D01*
Y216896D01*
X200542D01*
X201854Y218207D01*
X200542Y219519D01*
X196607D01*
X193983Y216896D02*
Y222143D01*
X190047D01*
X188735Y220831D01*
Y216896D01*
M02*
