G04*
G04 #@! TF.GenerationSoftware,Altium Limited,Altium Designer,19.0.14 (431)*
G04*
G04 Layer_Color=65535*
%FSLAX25Y25*%
%MOIN*%
G70*
G01*
G75*
%ADD10C,0.00787*%
%ADD11C,0.01968*%
%ADD12C,0.01575*%
%ADD13C,0.01000*%
%ADD14C,0.00600*%
D10*
X153482Y110630D02*
X155844D01*
X153482Y120866D02*
X155844D01*
X153482Y94882D02*
X155844D01*
X153482Y105118D02*
X155844D01*
X213189Y129331D02*
X240158D01*
X213189Y117520D02*
Y129331D01*
Y95866D02*
Y107677D01*
Y95866D02*
X240158D01*
X246654Y117520D02*
Y122835D01*
X240158Y129331D02*
X246654Y122835D01*
X240158Y95866D02*
X246654Y102362D01*
Y107677D01*
X118701Y63779D02*
Y64173D01*
X115551Y63779D02*
Y64173D01*
X107677Y63779D02*
Y64173D01*
X110827Y63779D02*
Y64173D01*
X156236Y73622D02*
Y74016D01*
X159386Y73622D02*
Y74016D01*
X168214Y75799D02*
X168608D01*
X168214Y78949D02*
X168608D01*
X168014Y72149D02*
X168408D01*
X168014Y68999D02*
X168408D01*
X178937Y53543D02*
X179331D01*
X178937Y56693D02*
X179331D01*
X162795Y53700D02*
Y54094D01*
X165945Y53700D02*
Y54094D01*
X145079Y53700D02*
Y54094D01*
X148228Y53700D02*
Y54094D01*
X155315Y55275D02*
X155709D01*
X155315Y58424D02*
X155709D01*
X178937Y61417D02*
X179331D01*
X178937Y64567D02*
X179331D01*
X99409Y80315D02*
Y107283D01*
X87598D02*
X99409D01*
X65945D02*
X77756D01*
X65945Y80315D02*
Y107283D01*
X87598Y73819D02*
X92913D01*
X99409Y80315D01*
X65945D02*
X72441Y73819D01*
X77756D01*
X37211Y117854D02*
Y118890D01*
X55309Y117854D02*
Y118890D01*
X37211Y107488D02*
Y108524D01*
X55309Y107488D02*
Y108524D01*
X37211Y118890D02*
X55309D01*
X37211Y107488D02*
X55309D01*
X140152Y81701D02*
Y82736D01*
X122053Y81701D02*
Y82736D01*
X140152Y92067D02*
Y93102D01*
X122053Y92067D02*
Y93102D01*
Y81701D02*
X140152D01*
X122053Y93102D02*
X140152D01*
X119821Y100000D02*
X131238D01*
X119821Y120472D02*
X131238D01*
D11*
X3937Y47244D02*
X118110D01*
Y19685D02*
Y47244D01*
X74803Y19685D02*
X118110D01*
X74803Y3937D02*
Y19685D01*
X3937Y3937D02*
X74803D01*
X3937D02*
Y47244D01*
X9843Y39755D02*
Y27948D01*
Y33852D01*
X17714D01*
Y39755D01*
Y27948D01*
X21650D02*
Y39755D01*
X27553D01*
X29521Y37788D01*
Y33852D01*
X27553Y31884D01*
X21650D01*
X45264Y37788D02*
X47232Y39755D01*
X51168D01*
X53136Y37788D01*
Y29916D01*
X51168Y27948D01*
X47232D01*
X45264Y29916D01*
Y37788D01*
X57071D02*
X59039Y39755D01*
X62975D01*
X64943Y37788D01*
Y35820D01*
X62975Y33852D01*
X64943Y31884D01*
Y29916D01*
X62975Y27948D01*
X59039D01*
X57071Y29916D01*
Y31884D01*
X59039Y33852D01*
X57071Y35820D01*
Y37788D01*
X59039Y33852D02*
X62975D01*
X76750Y39755D02*
X68879D01*
Y33852D01*
X72814Y35820D01*
X74782D01*
X76750Y33852D01*
Y29916D01*
X74782Y27948D01*
X70846D01*
X68879Y29916D01*
X88557Y39755D02*
X80686D01*
Y33852D01*
X84622Y35820D01*
X86589D01*
X88557Y33852D01*
Y29916D01*
X86589Y27948D01*
X82654D01*
X80686Y29916D01*
X100364Y39755D02*
X92493D01*
Y33852D01*
X96429Y35820D01*
X98396D01*
X100364Y33852D01*
Y29916D01*
X98396Y27948D01*
X94461D01*
X92493Y29916D01*
X104300Y27948D02*
Y35820D01*
X108236Y39755D01*
X112172Y35820D01*
Y27948D01*
Y33852D01*
X104300D01*
X9843Y9055D02*
Y16927D01*
X13778Y20862D01*
X17714Y16927D01*
Y9055D01*
Y14959D01*
X9843D01*
X21650Y11023D02*
X23618Y9055D01*
X27553D01*
X29521Y11023D01*
Y18894D01*
X27553Y20862D01*
X23618D01*
X21650Y18894D01*
Y16927D01*
X23618Y14959D01*
X29521D01*
X45264Y20862D02*
Y12991D01*
X49200Y9055D01*
X53136Y12991D01*
Y20862D01*
X57071Y18894D02*
X59039Y20862D01*
X62975D01*
X64943Y18894D01*
Y16927D01*
X62975Y14959D01*
X61007D01*
X62975D01*
X64943Y12991D01*
Y11023D01*
X62975Y9055D01*
X59039D01*
X57071Y11023D01*
D12*
X33690Y107890D02*
Y118488D01*
X143673Y82102D02*
Y92701D01*
D13*
X2756Y111024D02*
X4396D01*
X3576D01*
Y115943D01*
X2756Y115123D01*
X6856D02*
X7676Y115943D01*
X9315D01*
X10135Y115123D01*
Y111844D01*
X9315Y111024D01*
X7676D01*
X6856Y111844D01*
Y115123D01*
X11775D02*
X12595Y115943D01*
X14235D01*
X15055Y115123D01*
Y111844D01*
X14235Y111024D01*
X12595D01*
X11775Y111844D01*
Y115123D01*
X16695Y115943D02*
Y112663D01*
X18335Y111024D01*
X19975Y112663D01*
Y115943D01*
X23359Y80871D02*
X22539Y81691D01*
X20899D01*
X20079Y80871D01*
Y77592D01*
X20899Y76772D01*
X22539D01*
X23359Y77592D01*
Y79232D01*
X21719D01*
X24998Y76772D02*
Y81691D01*
X28278Y76772D01*
Y81691D01*
X29918D02*
Y76772D01*
X32378D01*
X33198Y77592D01*
Y80871D01*
X32378Y81691D01*
X29918D01*
X241075Y145045D02*
X240255Y145865D01*
X238615D01*
X237795Y145045D01*
Y141765D01*
X238615Y140945D01*
X240255D01*
X241075Y141765D01*
Y143405D01*
X239435D01*
X242715Y140945D02*
Y145865D01*
X245995Y140945D01*
Y145865D01*
X247635D02*
Y140945D01*
X250095D01*
X250914Y141765D01*
Y145045D01*
X250095Y145865D01*
X247635D01*
X194225Y151181D02*
X190945D01*
X194225Y154461D01*
Y155281D01*
X193405Y156101D01*
X191765D01*
X190945Y155281D01*
X199144Y156101D02*
X197504Y155281D01*
X195865Y153641D01*
Y152001D01*
X196685Y151181D01*
X198324D01*
X199144Y152001D01*
Y152821D01*
X198324Y153641D01*
X195865D01*
X200784Y151181D02*
Y152001D01*
X201604D01*
Y151181D01*
X200784D01*
X204884D02*
X206524D01*
X205704D01*
Y156101D01*
X204884Y155281D01*
X208984Y156101D02*
Y152821D01*
X210624Y151181D01*
X212263Y152821D01*
Y156101D01*
X237857Y92006D02*
X236857Y93006D01*
X234858D01*
X233858Y92006D01*
Y88008D01*
X234858Y87008D01*
X236857D01*
X237857Y88008D01*
X239856Y92006D02*
X240856Y93006D01*
X242855D01*
X243855Y92006D01*
Y91007D01*
X242855Y90007D01*
X241856D01*
X242855D01*
X243855Y89007D01*
Y88008D01*
X242855Y87008D01*
X240856D01*
X239856Y88008D01*
D14*
X189007Y55856D02*
X188507Y56356D01*
X187508D01*
X187008Y55856D01*
Y53856D01*
X187508Y53356D01*
X188507D01*
X189007Y53856D01*
X190007Y56356D02*
X192006D01*
Y55856D01*
X190007Y53856D01*
Y53356D01*
X67448Y118411D02*
X66948Y118911D01*
X65949D01*
X65449Y118411D01*
Y116412D01*
X65949Y115912D01*
X66948D01*
X67448Y116412D01*
X70447Y118911D02*
X69447Y118411D01*
X68448Y117411D01*
Y116412D01*
X68948Y115912D01*
X69947D01*
X70447Y116412D01*
Y116911D01*
X69947Y117411D01*
X68448D01*
X118099Y178262D02*
Y175263D01*
X120098D01*
X121098D02*
X122098D01*
X121598D01*
Y178262D01*
X121098Y177762D01*
X151575Y49960D02*
Y52959D01*
X153074D01*
X153574Y52459D01*
Y51459D01*
X153074Y50959D01*
X151575D01*
X152575D02*
X153574Y49960D01*
X154574D02*
X155573D01*
X155074D01*
Y52959D01*
X154574Y52459D01*
X157073D02*
X157573Y52959D01*
X158572D01*
X159072Y52459D01*
Y50460D01*
X158572Y49960D01*
X157573D01*
X157073Y50460D01*
Y52459D01*
X120593Y99061D02*
Y96062D01*
X122092D01*
X122592Y96562D01*
Y98561D01*
X122092Y99061D01*
X120593D01*
X125591Y96062D02*
X123592D01*
X125591Y98062D01*
Y98561D01*
X125092Y99061D01*
X124092D01*
X123592Y98561D01*
X33500Y124925D02*
Y121926D01*
X34999D01*
X35499Y122426D01*
Y124425D01*
X34999Y124925D01*
X33500D01*
X36499Y121926D02*
X37499D01*
X36999D01*
Y124925D01*
X36499Y124425D01*
X113648Y127011D02*
X113148Y127511D01*
X112149D01*
X111649Y127011D01*
Y125012D01*
X112149Y124512D01*
X113148D01*
X113648Y125012D01*
X116647Y127511D02*
X114648D01*
Y126011D01*
X115647Y126511D01*
X116147D01*
X116647Y126011D01*
Y125012D01*
X116147Y124512D01*
X115148D01*
X114648Y125012D01*
X128182Y60873D02*
Y58374D01*
X128682Y57874D01*
X129681D01*
X130181Y58374D01*
Y60873D01*
X131181Y57874D02*
X132180D01*
X131681D01*
Y60873D01*
X131181Y60373D01*
X187008Y61691D02*
Y64690D01*
X188507D01*
X189007Y64190D01*
Y63190D01*
X188507Y62690D01*
X187008D01*
X188007D02*
X189007Y61691D01*
X190007Y62190D02*
X190507Y61691D01*
X191506D01*
X192006Y62190D01*
Y64190D01*
X191506Y64690D01*
X190507D01*
X190007Y64190D01*
Y63690D01*
X190507Y63190D01*
X192006D01*
X109843Y51575D02*
X106843D01*
Y53074D01*
X107343Y53574D01*
X108343D01*
X108843Y53074D01*
Y51575D01*
Y52574D02*
X109843Y53574D01*
X107343Y54574D02*
X106843Y55074D01*
Y56073D01*
X107343Y56573D01*
X107843D01*
X108343Y56073D01*
X108843Y56573D01*
X109343D01*
X109843Y56073D01*
Y55074D01*
X109343Y54574D01*
X108843D01*
X108343Y55074D01*
X107843Y54574D01*
X107343D01*
X108343Y55074D02*
Y56073D01*
X118504Y51575D02*
X115505D01*
Y53074D01*
X116005Y53574D01*
X117004D01*
X117504Y53074D01*
Y51575D01*
Y52574D02*
X118504Y53574D01*
X115505Y56573D02*
X116005Y55573D01*
X117004Y54574D01*
X118004D01*
X118504Y55074D01*
Y56073D01*
X118004Y56573D01*
X117504D01*
X117004Y56073D01*
Y54574D01*
X162992Y64567D02*
Y67566D01*
X164492D01*
X164991Y67066D01*
Y66066D01*
X164492Y65567D01*
X162992D01*
X163992D02*
X164991Y64567D01*
X167991Y67566D02*
X165991D01*
Y66066D01*
X166991Y66566D01*
X167491D01*
X167991Y66066D01*
Y65067D01*
X167491Y64567D01*
X166491D01*
X165991Y65067D01*
X153937Y69291D02*
X150938D01*
Y70791D01*
X151438Y71291D01*
X152437D01*
X152937Y70791D01*
Y69291D01*
Y70291D02*
X153937Y71291D01*
Y73790D02*
X150938D01*
X152437Y72290D01*
Y74290D01*
X162990Y81708D02*
Y84707D01*
X164489D01*
X164989Y84207D01*
Y83207D01*
X164489Y82707D01*
X162990D01*
X163989D02*
X164989Y81708D01*
X165989Y84207D02*
X166489Y84707D01*
X167488D01*
X167988Y84207D01*
Y83707D01*
X167488Y83207D01*
X166989D01*
X167488D01*
X167988Y82707D01*
Y82208D01*
X167488Y81708D01*
X166489D01*
X165989Y82208D01*
X142126Y51534D02*
X139127D01*
Y53034D01*
X139627Y53534D01*
X140627D01*
X141126Y53034D01*
Y51534D01*
Y52534D02*
X142126Y53534D01*
Y56533D02*
Y54534D01*
X140127Y56533D01*
X139627D01*
X139127Y56033D01*
Y55033D01*
X139627Y54534D01*
X171260Y52322D02*
X168261D01*
Y53821D01*
X168761Y54321D01*
X169760D01*
X170260Y53821D01*
Y52322D01*
Y53322D02*
X171260Y54321D01*
Y55321D02*
Y56321D01*
Y55821D01*
X168261D01*
X168761Y55321D01*
X241343Y163335D02*
X240343D01*
X240843D01*
Y160836D01*
X240343Y160336D01*
X239843D01*
X239344Y160836D01*
X243842Y160336D02*
Y163335D01*
X242342Y161836D01*
X244342D01*
X24790Y99188D02*
X23790D01*
X24290D01*
Y96689D01*
X23790Y96189D01*
X23290D01*
X22791Y96689D01*
X25790Y98688D02*
X26289Y99188D01*
X27289D01*
X27789Y98688D01*
Y98188D01*
X27289Y97689D01*
X26789D01*
X27289D01*
X27789Y97189D01*
Y96689D01*
X27289Y96189D01*
X26289D01*
X25790Y96689D01*
X216110Y163757D02*
X215110D01*
X215610D01*
Y161257D01*
X215110Y160758D01*
X214610D01*
X214110Y161257D01*
X219109Y160758D02*
X217109D01*
X219109Y162757D01*
Y163257D01*
X218609Y163757D01*
X217609D01*
X217109Y163257D01*
X24157Y123796D02*
X23157D01*
X23657D01*
Y121297D01*
X23157Y120797D01*
X22657D01*
X22158Y121297D01*
X25157Y120797D02*
X26156D01*
X25656D01*
Y123796D01*
X25157Y123296D01*
X170013Y98956D02*
X169514Y99456D01*
X168514D01*
X168014Y98956D01*
Y96956D01*
X168514Y96457D01*
X169514D01*
X170013Y96956D01*
X173013Y96457D02*
X171013D01*
X173013Y98456D01*
Y98956D01*
X172513Y99456D01*
X171513D01*
X171013Y98956D01*
X169788Y113129D02*
X169289Y113629D01*
X168289D01*
X167789Y113129D01*
Y111130D01*
X168289Y110630D01*
X169289D01*
X169788Y111130D01*
X170788Y110630D02*
X171788D01*
X171288D01*
Y113629D01*
X170788Y113129D01*
M02*
