G04*
G04 #@! TF.GenerationSoftware,Altium Limited,Altium Designer,19.0.14 (431)*
G04*
G04 Layer_Physical_Order=1*
G04 Layer_Color=255*
%FSLAX25Y25*%
%MOIN*%
G70*
G01*
G75*
%ADD12C,0.01575*%
%ADD13C,0.01000*%
%ADD15R,0.10236X0.12598*%
%ADD16R,0.06500X0.11201*%
%ADD17R,0.03500X0.01201*%
%ADD18R,0.06299X0.11024*%
%ADD19R,0.15158X0.07480*%
%ADD20R,0.03937X0.03543*%
%ADD21R,0.03543X0.03937*%
%ADD22R,0.07480X0.15158*%
%ADD23R,0.06122X0.06181*%
%ADD24R,0.06102X0.21260*%
%ADD40C,0.06693*%
%ADD41C,0.05118*%
%ADD42C,0.04331*%
%ADD43C,0.02756*%
%ADD44C,0.23622*%
G36*
X267717Y0D02*
X0D01*
Y236221D01*
X267717D01*
Y0D01*
D02*
G37*
%LPC*%
G36*
X130709Y157157D02*
X120079D01*
X119298Y157002D01*
X118637Y156560D01*
X118484Y156331D01*
X118297D01*
Y156052D01*
X118195Y155898D01*
X118040Y155118D01*
Y123463D01*
X117482Y122907D01*
X51148Y123102D01*
X51146Y123102D01*
X51144Y123102D01*
X50757Y123026D01*
X50367Y122949D01*
X50365Y122949D01*
X50364Y122948D01*
X50034Y122729D01*
X49704Y122509D01*
X49703Y122508D01*
X49702Y122507D01*
X49348Y122154D01*
X49347Y122153D01*
X49345Y122152D01*
X49126Y121823D01*
X48905Y121493D01*
X48904Y121492D01*
X48903Y121490D01*
X48826Y121102D01*
X48748Y120713D01*
X48748Y120712D01*
X48748Y120710D01*
Y118280D01*
X48738D01*
Y108098D01*
X48748D01*
Y96457D01*
X48903Y95676D01*
X49345Y95015D01*
X50007Y94573D01*
X50787Y94418D01*
X90691D01*
X106311Y78797D01*
X106260Y78011D01*
X105804Y77661D01*
X105073Y76709D01*
X104613Y75600D01*
X104457Y74410D01*
X104613Y73219D01*
X105073Y72110D01*
X105804Y71158D01*
X106756Y70427D01*
X107099Y70285D01*
X106942Y69498D01*
X106684D01*
Y64754D01*
X111820D01*
Y68108D01*
X113164Y69452D01*
X114558D01*
Y64754D01*
X119694D01*
Y64823D01*
X123179D01*
Y64745D01*
X127880D01*
Y66713D01*
Y71082D01*
X128611Y71219D01*
X129279D01*
Y76396D01*
X130865Y77981D01*
X131496Y78346D01*
Y78347D01*
X131496Y78347D01*
X138061D01*
X138118Y78289D01*
Y76419D01*
X138274Y75639D01*
X138398Y75453D01*
Y75156D01*
X138596D01*
X138716Y74977D01*
X139377Y74535D01*
X139798Y74452D01*
Y72835D01*
X139764D01*
Y70866D01*
X139798D01*
Y66713D01*
Y62776D01*
X141114D01*
X141595Y62186D01*
X141680Y61757D01*
X141923Y61393D01*
X144085Y59232D01*
Y54675D01*
X149222D01*
Y54675D01*
X149991Y54629D01*
Y54281D01*
X154734D01*
Y55515D01*
X155731Y55523D01*
X156290Y54969D01*
Y54281D01*
X160402D01*
Y46975D01*
X166692D01*
X166818Y46014D01*
X167278Y44905D01*
X168008Y43952D01*
X168961Y43222D01*
X170070Y42762D01*
X171260Y42605D01*
X172450Y42762D01*
X173559Y43222D01*
X174511Y43952D01*
X175242Y44905D01*
X175701Y46014D01*
X175858Y47204D01*
X175701Y48394D01*
X175242Y49503D01*
X174511Y50455D01*
X173559Y51186D01*
X172621Y51575D01*
X172777Y52362D01*
X173917D01*
Y52550D01*
X178356D01*
Y57687D01*
X175002D01*
X168652Y64036D01*
X168979Y64823D01*
X172567D01*
X173613Y63778D01*
Y60424D01*
X178356D01*
Y65561D01*
X175002D01*
X173825Y66738D01*
X173461Y66981D01*
X173031Y67066D01*
X173031Y67066D01*
X157966D01*
X157530Y67598D01*
X157830Y68298D01*
X160380D01*
Y69548D01*
X162690D01*
Y68006D01*
X167433D01*
X167433Y72441D01*
X167433Y72580D01*
X167467Y72826D01*
X167700Y73246D01*
X168027Y73373D01*
X168252Y73405D01*
X168455Y73405D01*
X175304D01*
X175850Y72986D01*
X176960Y72527D01*
X178150Y72370D01*
X179340Y72527D01*
X180449Y72986D01*
X181401Y73717D01*
X182132Y74669D01*
X182591Y75778D01*
X182748Y76968D01*
X182591Y78159D01*
X182132Y79268D01*
X181401Y80220D01*
X180449Y80951D01*
X179340Y81410D01*
X178150Y81567D01*
X176960Y81410D01*
X176120Y81062D01*
X175332Y81343D01*
Y81343D01*
X167789D01*
Y80665D01*
X167633Y79943D01*
X167002Y79943D01*
X162890D01*
Y78090D01*
X160380D01*
Y79340D01*
X155243D01*
Y75986D01*
X154197Y74940D01*
X146596D01*
X146294Y75033D01*
X146057Y75489D01*
X145996Y75728D01*
X146134Y76419D01*
Y90551D01*
X145978Y91331D01*
X145536Y91993D01*
X144875Y92435D01*
X144095Y92590D01*
X135433D01*
X135406Y92585D01*
X134646Y92520D01*
X134646Y92520D01*
X134646Y92520D01*
X132748D01*
Y155118D01*
X132593Y155898D01*
X132533Y155987D01*
Y156331D01*
X132304D01*
X132151Y156560D01*
X131489Y157002D01*
X130709Y157157D01*
D02*
G37*
G36*
X42323Y121134D02*
X22638D01*
X21857Y120978D01*
X21196Y120536D01*
X20754Y119875D01*
X20599Y119095D01*
Y107283D01*
X20754Y106503D01*
X21196Y105842D01*
X21857Y105400D01*
X22638Y105244D01*
X42323D01*
X43103Y105400D01*
X43765Y105842D01*
X44207Y106503D01*
X44362Y107283D01*
Y119095D01*
X44207Y119875D01*
X43765Y120536D01*
X43103Y120978D01*
X42323Y121134D01*
D02*
G37*
G36*
X224410Y161488D02*
X153150D01*
X152369Y161333D01*
X151708Y160891D01*
X151266Y160229D01*
X151110Y159449D01*
Y127559D01*
X151266Y126779D01*
X151708Y126117D01*
X155047Y122777D01*
Y94095D01*
X155203Y93314D01*
X155321Y93137D01*
Y92488D01*
X155891D01*
X156306Y92211D01*
X157087Y92055D01*
X224803D01*
X225584Y92211D01*
X226245Y92653D01*
X226687Y93314D01*
X226842Y94095D01*
Y159055D01*
X226842Y159055D01*
X226687Y159836D01*
X226245Y160497D01*
X225851Y160891D01*
X225190Y161333D01*
X224410Y161488D01*
D02*
G37*
G36*
X119694Y63198D02*
X114558D01*
Y58455D01*
X117497D01*
X118783Y57169D01*
X119242Y56862D01*
X119783Y56755D01*
X121732D01*
X121847Y56478D01*
X122353Y55818D01*
X123013Y55311D01*
X123782Y54993D01*
X124606Y54885D01*
X125431Y54993D01*
X126199Y55311D01*
X126859Y55818D01*
X127366Y56478D01*
X127684Y57246D01*
X127793Y58071D01*
X127684Y58896D01*
X127366Y59664D01*
X126859Y60324D01*
X126199Y60830D01*
X125431Y61149D01*
X125414Y61151D01*
X125232Y61272D01*
X124803Y61357D01*
X124374Y61272D01*
X124289Y61215D01*
X123782Y61149D01*
X123013Y60830D01*
X122353Y60324D01*
X121847Y59664D01*
X121814Y59584D01*
X120369D01*
X119694Y60259D01*
Y63198D01*
D02*
G37*
%LPD*%
G36*
X130709Y80709D02*
X127165Y77165D01*
X121653D01*
X120149Y78670D01*
Y97606D01*
X120246D01*
Y122866D01*
X120079D01*
Y155118D01*
X130709D01*
Y80709D01*
D02*
G37*
G36*
X144095Y76419D02*
X140157D01*
Y79134D01*
X135433Y83858D01*
Y90551D01*
X144095D01*
Y76419D01*
D02*
G37*
G36*
X118110Y120866D02*
Y75984D01*
X119685Y74410D01*
X127165D01*
Y73228D01*
X114764D01*
X91535Y96457D01*
X50787D01*
Y120710D01*
X51142Y121063D01*
X118110Y120866D01*
D02*
G37*
G36*
X42323Y107283D02*
X22638D01*
Y119095D01*
X42323D01*
Y107283D01*
D02*
G37*
G36*
X224803Y159055D02*
Y94095D01*
X157087D01*
Y123622D01*
X153150Y127559D01*
Y159449D01*
X224410D01*
X224803Y159055D01*
D02*
G37*
D12*
X171457Y76968D02*
X178150D01*
X171260Y76772D02*
X171457Y76968D01*
X116929Y61024D02*
X119783Y58169D01*
X122737D01*
X110236Y75590D02*
X112992D01*
X169291Y50747D02*
X170472Y49566D01*
X164370Y50747D02*
X169291D01*
D13*
X171260Y47204D02*
Y48779D01*
X170472Y49566D02*
X171260Y48779D01*
X142717Y62186D02*
Y63976D01*
X122737Y58169D02*
X124606Y60039D01*
X149213Y65945D02*
X154375D01*
X148819Y63386D02*
Y65945D01*
Y63386D02*
X149213Y62992D01*
X124606Y60039D02*
X124803Y60236D01*
X124606Y58071D02*
Y60039D01*
X149606Y63386D02*
Y63779D01*
X149213Y62992D02*
X149606Y63386D01*
X121634Y67913D02*
X125530D01*
X118974Y70574D02*
X121634Y67913D01*
X112700Y70574D02*
X118974D01*
X109252Y67126D02*
X112700Y70574D01*
X167189Y63914D02*
X175984Y55118D01*
X156406Y63914D02*
X167189D01*
X154375Y65945D02*
X156406Y63914D01*
X173031Y65945D02*
X175984Y62992D01*
X157480Y65945D02*
X173031D01*
X155628Y67798D02*
X157480Y65945D01*
X142263Y67798D02*
X155628D01*
X142148Y67913D02*
X142263Y67798D01*
X109055Y74410D02*
X110236Y75590D01*
X142148Y65945D02*
X148819D01*
X146653Y57046D02*
Y58249D01*
X142717Y62186D02*
X146653Y58249D01*
X160470Y100000D02*
X178347D01*
X178740Y99606D01*
X154661Y73819D02*
X157811Y76968D01*
X142148Y73819D02*
X154661D01*
X169291Y50747D02*
X169291Y50747D01*
X117126Y67126D02*
X118307Y65945D01*
X125530D01*
X164966Y70669D02*
X165061Y70574D01*
X157811Y70669D02*
X164966D01*
X157024Y69882D02*
X157811Y70669D01*
X142148Y69882D02*
X157024D01*
X164856Y76968D02*
X165261Y77374D01*
X157811Y76968D02*
X164856D01*
X164173Y56849D02*
X164370Y57046D01*
X158661Y56849D02*
X164173D01*
X152165Y57046D02*
X152362Y56849D01*
X146653Y57046D02*
X152165D01*
D15*
X158880Y148031D02*
D03*
X125415D02*
D03*
D16*
X133858Y70866D02*
D03*
D17*
X142148Y77756D02*
D03*
Y73819D02*
D03*
Y69882D02*
D03*
Y67913D02*
D03*
Y65945D02*
D03*
Y63976D02*
D03*
X125530D02*
D03*
Y65945D02*
D03*
Y67913D02*
D03*
Y69882D02*
D03*
Y73819D02*
D03*
Y77756D02*
D03*
D18*
X160470Y115748D02*
D03*
X148856D02*
D03*
X160470Y100000D02*
D03*
X148856D02*
D03*
D19*
X215945Y112598D02*
D03*
X243898D02*
D03*
D20*
X117126Y60827D02*
D03*
Y67126D02*
D03*
X109252D02*
D03*
Y60827D02*
D03*
X157811Y76968D02*
D03*
Y70669D02*
D03*
X164370Y57046D02*
D03*
Y50747D02*
D03*
X146653Y57046D02*
D03*
Y50747D02*
D03*
D21*
X165261Y77374D02*
D03*
X171561D02*
D03*
X171361Y70574D02*
D03*
X165061D02*
D03*
X182283Y55118D02*
D03*
X175984D02*
D03*
X152362Y56849D02*
D03*
X158661D02*
D03*
X175984Y62992D02*
D03*
X182283D02*
D03*
D22*
X82677Y104527D02*
D03*
Y76575D02*
D03*
D23*
X38721Y113189D02*
D03*
X53799D02*
D03*
X138642Y87402D02*
D03*
X123563D02*
D03*
D24*
X135864Y110236D02*
D03*
X115195D02*
D03*
D40*
X26575Y113189D02*
D03*
X218504Y153150D02*
D03*
X27165Y88583D02*
D03*
X243701Y152756D02*
D03*
D41*
X178150Y76968D02*
D03*
X171260Y47204D02*
D03*
X124606Y58071D02*
D03*
X46358Y64272D02*
D03*
Y52461D02*
D03*
X32579D02*
D03*
Y64272D02*
D03*
X73917D02*
D03*
Y52461D02*
D03*
X60138D02*
D03*
Y64272D02*
D03*
X210630Y64961D02*
D03*
Y53150D02*
D03*
X196850D02*
D03*
Y64961D02*
D03*
X238189D02*
D03*
Y53150D02*
D03*
X224410D02*
D03*
Y64961D02*
D03*
X210630Y188976D02*
D03*
Y177165D02*
D03*
X196850D02*
D03*
Y188976D02*
D03*
X238189D02*
D03*
Y177165D02*
D03*
X224410D02*
D03*
Y188976D02*
D03*
X62205Y187992D02*
D03*
Y176181D02*
D03*
X75984D02*
D03*
Y187992D02*
D03*
X48425D02*
D03*
Y176181D02*
D03*
X34646D02*
D03*
Y187992D02*
D03*
X109055Y74410D02*
D03*
X178740Y99606D02*
D03*
D42*
X149606Y63779D02*
D03*
D43*
X132382Y69521D02*
D03*
Y66831D02*
D03*
X135335Y69521D02*
D03*
X132382Y72211D02*
D03*
X135335Y66831D02*
D03*
Y74902D02*
D03*
X132382D02*
D03*
X135335Y72211D02*
D03*
X144095Y100394D02*
D03*
Y97244D02*
D03*
Y103543D02*
D03*
Y106693D02*
D03*
Y109843D02*
D03*
Y112992D02*
D03*
Y116142D02*
D03*
Y119291D02*
D03*
X140945Y97244D02*
D03*
Y100394D02*
D03*
Y103543D02*
D03*
Y106693D02*
D03*
Y109843D02*
D03*
Y112992D02*
D03*
Y116142D02*
D03*
Y119291D02*
D03*
D44*
X135827Y210630D02*
D03*
X238189Y23622D02*
D03*
M02*
