G04*
G04 #@! TF.GenerationSoftware,Altium Limited,Altium Designer,19.0.14 (431)*
G04*
G04 Layer_Color=8388736*
%FSLAX25Y25*%
%MOIN*%
G70*
G01*
G75*
%ADD25R,0.11417X0.13780*%
%ADD26R,0.07681X0.12382*%
%ADD27R,0.04681X0.02382*%
%ADD28R,0.07480X0.12205*%
%ADD29R,0.16339X0.08661*%
%ADD30R,0.05118X0.04724*%
%ADD31R,0.04724X0.05118*%
%ADD32R,0.08661X0.16339*%
%ADD33R,0.07303X0.07362*%
%ADD34R,0.07284X0.22441*%
%ADD35C,0.07874*%
%ADD36C,0.06299*%
%ADD37C,0.05512*%
%ADD38C,0.03937*%
%ADD39C,0.24803*%
G36*
X146457Y94685D02*
X138878D01*
Y121653D01*
X146457D01*
Y94685D01*
D02*
G37*
D25*
X158880Y148031D02*
D03*
X125415D02*
D03*
D26*
X133858Y70866D02*
D03*
D27*
X142148Y77756D02*
D03*
Y73819D02*
D03*
Y69882D02*
D03*
Y67913D02*
D03*
Y65945D02*
D03*
Y63976D02*
D03*
X125530D02*
D03*
Y65945D02*
D03*
Y67913D02*
D03*
Y69882D02*
D03*
Y73819D02*
D03*
Y77756D02*
D03*
D28*
X160470Y115748D02*
D03*
X148856D02*
D03*
X160470Y100000D02*
D03*
X148856D02*
D03*
D29*
X215945Y112598D02*
D03*
X243898D02*
D03*
D30*
X117126Y60827D02*
D03*
Y67126D02*
D03*
X109252D02*
D03*
Y60827D02*
D03*
X157811Y76968D02*
D03*
Y70669D02*
D03*
X164370Y57046D02*
D03*
Y50747D02*
D03*
X146653Y57046D02*
D03*
Y50747D02*
D03*
D31*
X165261Y77374D02*
D03*
X171561D02*
D03*
X171361Y70574D02*
D03*
X165061D02*
D03*
X182283Y55118D02*
D03*
X175984D02*
D03*
X152362Y56849D02*
D03*
X158661D02*
D03*
X175984Y62992D02*
D03*
X182283D02*
D03*
D32*
X82677Y104527D02*
D03*
Y76575D02*
D03*
D33*
X38721Y113189D02*
D03*
X53799D02*
D03*
X138642Y87402D02*
D03*
X123563D02*
D03*
D34*
X135864Y110236D02*
D03*
X115195D02*
D03*
D35*
X26575Y113189D02*
D03*
X218504Y153150D02*
D03*
X27165Y88583D02*
D03*
X243701Y152756D02*
D03*
D36*
X178150Y76968D02*
D03*
X171260Y47204D02*
D03*
X124606Y58071D02*
D03*
X46358Y64272D02*
D03*
Y52461D02*
D03*
X32579D02*
D03*
Y64272D02*
D03*
X73917D02*
D03*
Y52461D02*
D03*
X60138D02*
D03*
Y64272D02*
D03*
X210630Y64961D02*
D03*
Y53150D02*
D03*
X196850D02*
D03*
Y64961D02*
D03*
X238189D02*
D03*
Y53150D02*
D03*
X224410D02*
D03*
Y64961D02*
D03*
X210630Y188976D02*
D03*
Y177165D02*
D03*
X196850D02*
D03*
Y188976D02*
D03*
X238189D02*
D03*
Y177165D02*
D03*
X224410D02*
D03*
Y188976D02*
D03*
X62205Y187992D02*
D03*
Y176181D02*
D03*
X75984D02*
D03*
Y187992D02*
D03*
X48425D02*
D03*
Y176181D02*
D03*
X34646D02*
D03*
Y187992D02*
D03*
X109055Y74410D02*
D03*
X178740Y99606D02*
D03*
D37*
X149606Y63779D02*
D03*
D38*
X132382Y69521D02*
D03*
Y66831D02*
D03*
X135335Y69521D02*
D03*
X132382Y72211D02*
D03*
X135335Y66831D02*
D03*
Y74902D02*
D03*
X132382D02*
D03*
X135335Y72211D02*
D03*
X144095Y100394D02*
D03*
Y97244D02*
D03*
Y103543D02*
D03*
Y106693D02*
D03*
Y109843D02*
D03*
Y112992D02*
D03*
Y116142D02*
D03*
Y119291D02*
D03*
X140945Y97244D02*
D03*
Y100394D02*
D03*
Y103543D02*
D03*
Y106693D02*
D03*
Y109843D02*
D03*
Y112992D02*
D03*
Y116142D02*
D03*
Y119291D02*
D03*
D39*
X135827Y210630D02*
D03*
X238189Y23622D02*
D03*
M02*
